<svg xmlns="http://www.w3.org/2000/svg" version="1.1" xmlns:xlink="http://www.w3.org/1999/xlink" xmlns:svgjs="http://svgjs.dev/svgjs" width="1500" height="1500" viewBox="0 0 1500 1500"><rect width="1500" height="1500" fill="#e5e7eb"></rect><g transform="matrix(0.6666666666666666,0,0,0.6666666666666666,249.97001289250062,389.29230769230765)"><svg viewBox="0 0 342 247" data-background-color="#e5e7eb" preserveAspectRatio="xMidYMid meet" height="1083" width="1500" xmlns="http://www.w3.org/2000/svg" xmlns:xlink="http://www.w3.org/1999/xlink"><g id="tight-bounds" transform="matrix(1,0,0,1,0.010255590764785438,-0.09999999999999432)"><svg viewBox="0 0 341.97948881847043 247.2" height="247.2" width="341.97948881847043"><g><svg viewBox="0 0 397.4975999999999 287.3312872052368" height="247.2" width="341.97948881847043"><g><svg viewBox="0 0 397.4975999999999 287.3312872052368" height="287.3312872052368" width="397.4975999999999"><g id="textblocktransform"><svg viewBox="0 0 397.4975999999999 287.3312872052368" height="287.3312872052368" width="397.4975999999999" id="textblock"><g><rect width="397.4975999999999" height="11.970773452654559" x="0" y="146.84328511319933" fill="#6c98b9" opacity="1" stroke-width="0" stroke="transparent" fill-opacity="1" class="rect-yte-0" data-fill-palette-color="primary" rx="1%" id="yte-0" data-palette-color="#6c98b9"></rect></g><g transform="matrix(1,0,0,1,0.9887999999999693,0)"><svg viewBox="0 0 395.52 132.74158863755915" height="132.74158863755915" width="395.52"><g transform="matrix(1,0,0,1,0,0)"><svg width="395.52" viewBox="0.35 -31.5 95.04 31.9" height="132.74158863755915" data-palette-color="#6c98b9"><path d="M2.4 0.05L2.4 0.05Q1.95 0.05 1.4 0.05 0.85 0.05 0.35 0L0.35 0 0.35-2.25 2-2.25Q3.6-2.2 4.23-2.83 4.85-3.45 4.85-5.15L4.85-5.15 4.85-29.55 8-29.55 8-6.5Q8-4 7.55-2.55 7.1-1.1 5.9-0.53 4.7 0.05 2.4 0.05ZM22.65 0L14.05 0 14.05-29.55 23.2-29.55Q25.65-29.55 27.2-28.38 28.75-27.2 28.75-24.65L28.75-24.65 28.75-21.05Q28.75-19.65 28.35-18.57 27.95-17.5 27.25-16.85L27.25-16.85Q26.55-16.15 25.57-15.93 24.6-15.7 23.95-15.65L23.95-15.65 23.95-15.75Q24.95-15.75 25.87-15.53 26.8-15.3 27.45-14.65L27.45-14.65Q28.2-13.95 28.62-12.88 29.05-11.8 29.05-10.35L29.05-10.35 29.05-6.05Q29.05-3.55 28.25-2.25 27.45-0.95 26.02-0.48 24.6 0 22.65 0L22.65 0ZM17.2-14.3L17.2-1.8 22.1-1.8Q23.25-1.8 24.1-2.13 24.95-2.45 25.42-3.43 25.9-4.4 25.9-6.3L25.9-6.3 25.9-10.35Q25.9-12.75 24.67-13.53 23.45-14.3 21.65-14.3L21.65-14.3 17.2-14.3ZM17.2-27.7L17.2-16.4 21.55-16.4Q23.55-16.4 24.62-17.5 25.7-18.6 25.7-20.7L25.7-20.7 25.7-24.1Q25.7-25.95 24.72-26.83 23.75-27.7 22.35-27.7L22.35-27.7 17.2-27.7ZM40.34 0.35L40.34 0.35Q38.05 0.35 36.52-0.28 35-0.9 34.27-2.5 33.55-4.1 33.55-6.9L33.55-6.9 33.55-18.45Q33.55-22.05 35.12-23.6 36.7-25.15 40.34-25.15L40.34-25.15Q44-25.15 45.57-23.65 47.15-22.15 47.15-18.45L47.15-18.45 47.15-6.9Q47.15-4.1 46.45-2.53 45.75-0.95 44.25-0.3 42.75 0.35 40.34 0.35ZM40.34-1.6L40.34-1.6Q42.34-1.6 43.2-2.6 44.05-3.6 44.05-6.25L44.05-6.25 44.05-18.6Q44.05-21.05 43.25-22.13 42.45-23.2 40.34-23.2L40.34-23.2Q38.4-23.2 37.52-22.18 36.65-21.15 36.65-18.6L36.65-18.6 36.65-6.25Q36.65-3.65 37.52-2.63 38.4-1.6 40.34-1.6ZM56.29 0.35L56.29 0.35Q55.14 0.35 53.97 0.03 52.79-0.3 51.97-1.48 51.14-2.65 51.14-5.15L51.14-5.15 51.14-7.55Q51.14-10.05 52.67-11.58 54.19-13.1 56.84-14.3L56.84-14.3Q58.54-15.15 59.62-15.8 60.69-16.45 61.24-17.25 61.79-18.05 61.79-19.4L61.79-19.4 61.79-20.45Q61.79-21.65 61.29-22.3 60.79-22.95 59.97-23.2 59.14-23.45 58.24-23.45L58.24-23.45Q55.99-23.45 55.29-22.23 54.59-21 54.59-18.6L54.59-18.6 54.59-16.5 51.74-16.5 51.74-18.9Q51.74-20.75 52.24-22.18 52.74-23.6 54.14-24.43 55.54-25.25 58.24-25.25L58.24-25.25Q61.09-25.25 62.52-24.6 63.94-23.95 64.42-22.75 64.89-21.55 64.89-19.9L64.89-19.9 64.89 0 61.84 0 61.79-3.1Q61.19-1.4 59.64-0.53 58.09 0.35 56.29 0.35ZM57.44-1.75L57.44-1.75Q59.69-1.75 60.72-3.35 61.74-4.95 61.74-7.6L61.74-7.6 61.74-15.5Q61.24-14.7 60.09-14.05 58.94-13.4 57.74-12.75L57.74-12.75Q56.04-11.75 55.12-10.68 54.19-9.6 54.19-7.7L54.19-7.7 54.19-5.75Q54.19-3.95 54.69-3.1 55.19-2.25 55.94-2 56.69-1.75 57.44-1.75ZM72.84 0L69.74 0 69.74-24.75 72.34-24.75 72.69-22.1Q73.24-23.5 74.49-24.1 75.74-24.7 76.99-24.85L76.99-24.85Q78.39-25.15 79.69-24.9L79.69-24.9 79.69-22.45Q79.49-22.5 78.99-22.55 78.49-22.6 77.92-22.6 77.34-22.6 76.84-22.4L76.84-22.4Q75.14-22.2 73.99-21.18 72.84-20.15 72.84-18.4L72.84-18.4 72.84 0ZM87.89 0.4L87.89 0.4Q86.04 0.4 84.84-0.08 83.64-0.55 82.96-1.43 82.29-2.3 82.04-3.63 81.79-4.95 81.79-6.65L81.79-6.65 81.79-19Q81.79-20.35 82.06-21.48 82.34-22.6 82.99-23.43 83.64-24.25 84.74-24.73 85.84-25.2 87.54-25.2L87.54-25.2Q89.54-25.2 90.66-24.6 91.79-24 92.29-23.15L92.29-23.15 92.29-31.5 95.39-31.5 95.39 0 93.24 0 92.94-2.35Q92.64-1.7 92.06-1.07 91.49-0.45 90.51-0.03 89.54 0.4 87.89 0.4ZM88.44-1.5L88.44-1.5Q89.89-1.5 90.69-2.02 91.49-2.55 91.81-3.4 92.14-4.25 92.21-5.28 92.29-6.3 92.29-7.3L92.29-7.3 92.29-20.85Q92.14-21.3 91.76-21.85 91.39-22.4 90.64-22.8 89.89-23.2 88.59-23.2L88.59-23.2Q87.14-23.2 86.39-22.8 85.64-22.4 85.31-21.73 84.99-21.05 84.94-20.2 84.89-19.35 84.89-18.45L84.89-18.45 84.89-6.25Q84.89-5.05 85.04-3.95 85.19-2.85 85.94-2.18 86.69-1.5 88.44-1.5Z" opacity="1" transform="matrix(1,0,0,1,0,0)" fill="#6c98b9" class="wordmark-text-0" data-fill-palette-color="primary" id="text-0"></path></svg></g></svg></g><g transform="matrix(1,0,0,1,0,172.91575504149407)"><svg viewBox="0 0 395.52 114.41553216374268" height="114.41553216374268" width="395.52"><g transform="matrix(1,0,0,1,0,0)"><svg width="395.52" viewBox="2.64 -35.99 125.24 36.230000000000004" height="114.41553216374268" data-palette-color="#bfc9d0"><path d="M12.79-12.01L22.75-35.99 29.44-35.99 18.75-14.65 18.75 0 12.79 0 12.79-12.01ZM2.64-35.99L9.33-35.99 14.75-21.97 12.11-15.58 2.64-35.99ZM48.97-23.19L48.97-27.78Q51.61-27.54 53.74-26.37 55.86-25.2 57.37-23.34 58.89-21.48 59.69-19.09 60.5-16.7 60.5-14.11L60.5-14.11Q60.5-12.94 60.35-11.77L60.35-11.77 43.6-11.77 43.6-16.06 54.88-16.06Q54.88-17.33 54.47-18.51 54.05-19.68 53.25-20.68 52.44-21.68 51.37-22.36 50.29-23.05 48.97-23.19L48.97-23.19ZM48.78-4.59L48.78-4.59Q49.32-4.59 50.12-4.71 50.93-4.83 51.83-5.15 52.73-5.47 53.64-5.96 54.54-6.45 55.22-7.13L55.22-7.13 57.37-3.86Q55.76-1.86 53.61-0.83 51.46 0.2 48.14 0.2L48.14 0.2Q45.46 0.2 43.12-0.9 40.77-2 39.11-3.91 37.45-5.81 36.47-8.35 35.5-10.89 35.5-13.82L35.5-13.82Q35.5-16.6 36.4-19.09 37.3-21.58 38.87-23.46 40.43-25.34 42.5-26.51 44.58-27.69 46.97-27.83L46.97-27.83 46.97-23.14Q45.17-22.8 43.99-21.68 42.82-20.56 42.16-19.12 41.5-17.68 41.24-16.16 40.97-14.65 40.97-13.57L40.97-13.57Q40.97-11.67 41.43-10.03 41.89-8.4 42.87-7.2 43.85-6.01 45.29-5.3 46.73-4.59 48.78-4.59ZM81.4-23.19L81.4-27.78Q84.03-27.54 86.16-26.37 88.28-25.2 89.79-23.34 91.31-21.48 92.11-19.09 92.92-16.7 92.92-14.11L92.92-14.11Q92.92-12.94 92.77-11.77L92.77-11.77 76.03-11.77 76.03-16.06 87.3-16.06Q87.3-17.33 86.89-18.51 86.47-19.68 85.67-20.68 84.86-21.68 83.79-22.36 82.71-23.05 81.4-23.19L81.4-23.19ZM81.2-4.59L81.2-4.59Q81.74-4.59 82.54-4.71 83.35-4.83 84.25-5.15 85.16-5.47 86.06-5.96 86.96-6.45 87.65-7.13L87.65-7.13 89.79-3.86Q88.18-1.86 86.04-0.83 83.89 0.2 80.57 0.2L80.57 0.2Q77.88 0.2 75.54-0.9 73.19-2 71.53-3.91 69.87-5.81 68.9-8.35 67.92-10.89 67.92-13.82L67.92-13.82Q67.92-16.6 68.82-19.09 69.73-21.58 71.29-23.46 72.85-25.34 74.93-26.51 77-27.69 79.39-27.83L79.39-27.83 79.39-23.14Q77.59-22.8 76.42-21.68 75.24-20.56 74.58-19.12 73.93-17.68 73.66-16.16 73.39-14.65 73.39-13.57L73.39-13.57Q73.39-11.67 73.85-10.03 74.32-8.4 75.29-7.2 76.27-6.01 77.71-5.3 79.15-4.59 81.2-4.59ZM108.89-23.54L108.89-8.35Q108.89-6.69 109.33-5.76 109.77-4.83 110.57-4.35 111.38-3.86 112.38-3.74 113.38-3.61 114.5-3.61L114.5-3.61 114.5 0Q113.87 0.1 113.23 0.15L113.23 0.15Q112.7 0.2 111.94 0.22 111.18 0.24 110.45 0.24L110.45 0.24Q109.72 0.24 108.96 0.2 108.2 0.15 107.67 0.05L107.67 0.05Q106.01-0.24 105.08-1.39 104.15-2.54 103.69-3.93 103.22-5.32 103.1-6.64 102.98-7.96 102.98-8.69L102.98-8.69 102.98-23.54 99.37-23.54 99.37-27.54 102.98-27.54 102.98-35.35 108.89-35.35 108.89-27.54 113.28-27.54 113.28-23.54 108.89-23.54ZM127.34-35.99L126.51-9.96 122.17-9.96 121.39-35.99 127.34-35.99ZM127.88-3.32L127.88-3.32Q127.88-1.86 126.86-0.83 125.83 0.2 124.37 0.2L124.37 0.2Q122.9 0.2 121.9-0.83 120.9-1.86 120.9-3.32L120.9-3.32Q120.9-4.79 121.92-5.79 122.95-6.79 124.37-6.79L124.37-6.79Q125.83-6.79 126.86-5.79 127.88-4.79 127.88-3.32Z" opacity="1" transform="matrix(1,0,0,1,0,0)" fill="#bfc9d0" class="slogan-text-1" data-fill-palette-color="secondary" id="text-1"></path></svg></g></svg></g></svg></g></svg></g></svg></g><defs></defs></svg><rect width="341.97948881847043" height="247.2" fill="none" stroke="none" visibility="hidden"></rect></g></svg></g></svg>